HIERARCHY
ROOT Pelvis
{
	OFFSET 0.000000 0.000000 0.000000
	CHANNELS 6 Xposition Yposition Zposition Xrotation Yrotation Zrotation
	JOINT LeftUpLeg_virtual
	{
		OFFSET 0.000000 0.000000 0.000000
		CHANNELS 3 Xrotation Yrotation Zrotation
		JOINT LeftUpLeg
		{
			OFFSET 8.479700 -4.795502 -0.379100
			CHANNELS 3 Xrotation Yrotation Zrotation
			JOINT LeftLeg
			{
				OFFSET 0.024144 -32.555107 0.112900
				CHANNELS 3 Xrotation Yrotation Zrotation
				JOINT LeftFoot
				{
					OFFSET -0.024144 -32.638630 -3.012600
					CHANNELS 3 Xrotation Yrotation Zrotation
					JOINT LeftToeBase
					{
						OFFSET 0.970200 -13.225400 11.864200
						CHANNELS 3 Xrotation Yrotation Zrotation
						End Site
						{
							OFFSET 0 0 0
						}
					}
				}
			}
		}
	}
	JOINT RightUpLeg_virtual
	{
		OFFSET 0.000000 0.000000 0.000000
		CHANNELS 3 Xrotation Yrotation Zrotation
		JOINT RightUpLeg
		{
			OFFSET -8.479700 -4.795502 -0.379100
			CHANNELS 3 Xrotation Yrotation Zrotation
			JOINT RightLeg
			{
				OFFSET -0.023144 -32.555092 0.112900
				CHANNELS 3 Xrotation Yrotation Zrotation
				JOINT RightFoot
				{
					OFFSET 0.023144 -32.638641 -3.012700
					CHANNELS 3 Xrotation Yrotation Zrotation
					JOINT RightToeBase
					{
						OFFSET -0.970200 -13.225400 11.864200
						CHANNELS 3 Xrotation Yrotation Zrotation
						End Site
						{
							OFFSET 0 0 0
						}
					}
				}
			}
		}
	}
	JOINT Hips_virtual
	{
		OFFSET 0.000000 0.000000 0.000000
		CHANNELS 3 Xrotation Yrotation Zrotation
		JOINT Hips
		{
			OFFSET -0.000000 -0.000000 -0.000000
			CHANNELS 3 Xrotation Yrotation Zrotation
			JOINT Spine
			{
				OFFSET 0.000000 7.722000 1.166200
				CHANNELS 3 Xrotation Yrotation Zrotation
				JOINT Spine1
				{
					OFFSET 0.000000 12.024101 0.248800
					CHANNELS 3 Xrotation Yrotation Zrotation
					JOINT Spine2
					{
						OFFSET 0.000000 11.502998 -0.491200
						CHANNELS 3 Xrotation Yrotation Zrotation
						JOINT Neck_virtual
						{
							OFFSET 0.000000 0.000000 0.000000
							CHANNELS 3 Xrotation Yrotation Zrotation
							JOINT Neck
							{
								OFFSET 0.000000 18.430702 -3.123100
								CHANNELS 3 Xrotation Yrotation Zrotation
								JOINT Head
								{
									OFFSET 0.000000 9.051102 1.034000
									CHANNELS 3 Xrotation Yrotation Zrotation
									End Site
									{
										OFFSET 0 0 0
									}
								}
							}
						}
						JOINT LeftShoulder_virtual
						{
							OFFSET 0.000000 0.000000 0.000000
							CHANNELS 3 Xrotation Yrotation Zrotation
							JOINT LeftShoulder
							{
								OFFSET 6.197800 13.665199 -4.064700
								CHANNELS 3 Xrotation Yrotation Zrotation
								JOINT LeftArm
								{
									OFFSET 7.778100 -0.187103 -1.709300
									CHANNELS 3 Xrotation Yrotation Zrotation
									JOINT LeftForeArm
									{
										OFFSET 22.049376 0.000000 0.000000
										CHANNELS 3 Xrotation Yrotation Zrotation
										JOINT LeftHand
										{
											OFFSET 23.009392 0.000000 0.000000
											CHANNELS 3 Xrotation Yrotation Zrotation
											End Site
											{
												OFFSET 0 0 0
											}
										}
									}
								}
							}
						}
						JOINT RightShoulder_virtual
						{
							OFFSET 0.000000 0.000000 0.000000
							CHANNELS 3 Xrotation Yrotation Zrotation
							JOINT RightShoulder
							{
								OFFSET -6.197800 13.665199 -4.064700
								CHANNELS 3 Xrotation Yrotation Zrotation
								JOINT RightArm
								{
									OFFSET -7.778100 -0.187103 -1.709300
									CHANNELS 3 Xrotation Yrotation Zrotation
									JOINT RightForeArm
									{
										OFFSET -22.049376 0.000000 0.000000
										CHANNELS 3 Xrotation Yrotation Zrotation
										JOINT RightHand
										{
											OFFSET -23.009392 0.000000 0.000000
											CHANNELS 3 Xrotation Yrotation Zrotation
											End Site
											{
												OFFSET 0 0 0
											}
										}
									}
								}
							}
						}
					}
				}
			}
		}
	}
}
MOTION
Frames: 8
Frame Time: 0.03333333
-0.169202 73.867889 0.174976 0.000000 0.000000 0.000000 3.016509 -58.257354 6.570235 -35.249865 10.175198 24.287755 43.161157 -7.481277 -9.789066 -9.608922 -2.809829 -8.081555 0.000000 0.000000 0.000000 3.016509 -58.257354 6.570235 -32.837470 -8.273079 -25.543058 48.057904 2.419849 -7.553118 -19.172992 2.835484 20.742431 0.000000 0.000000 0.000000 3.016509 -58.257354 6.570235 0.000000 0.000000 0.000000 11.191589 0.111548 -2.787770 8.434584 0.027708 -5.592326 0.000000 0.000000 0.000000 8.457048 0.027865 -5.591872 -21.555647 25.063369 12.062564 0.000000 0.000000 0.000000 8.457048 0.027865 -5.591872 -6.221668 -11.503858 -4.023826 -23.062176 9.568549 -36.639604 0.046109 -43.169118 -0.011165 0.000000 0.000000 0.000000 8.457048 0.027865 -5.591872 -5.488235 10.658259 2.466538 -41.473810 -26.755579 30.079074 -155.044502 68.137011 156.691493 0.000000 0.000000 0.000000 
-0.183850 73.868233 0.219120 0.000000 0.000000 0.000000 3.082064 -58.300213 6.602149 -35.322634 10.084620 24.276895 43.339654 -7.407087 -9.746438 -9.594072 -2.799104 -8.150910 0.000000 0.000000 0.000000 3.082064 -58.300213 6.602149 -32.819817 -8.142403 -25.443814 48.064359 2.315245 -7.622861 -19.078716 2.814716 20.880786 0.000000 0.000000 0.000000 3.082064 -58.300213 6.602149 0.000000 0.000000 0.000000 11.114407 0.127873 -2.762996 8.281122 0.065561 -5.543477 0.000000 0.000000 0.000000 8.303561 0.065717 -5.543008 -21.313510 24.821456 11.931887 0.000000 0.000000 0.000000 8.303561 0.065717 -5.543008 -5.888012 -11.348872 -4.111612 -23.088843 9.805528 -36.732074 -0.223605 -43.320366 -0.178071 0.000000 0.000000 0.000000 8.303561 0.065717 -5.543008 -5.146256 10.690683 2.467583 -41.573750 -27.076224 29.890038 -152.072126 67.361682 153.719923 0.000000 0.000000 0.000000 
-0.198835 73.862534 0.263445 0.000000 0.000000 0.000000 3.147685 -58.343073 6.634306 -35.384854 10.002185 24.254782 43.511662 -7.320947 -9.702153 -9.615000 -2.793524 -8.167554 0.000000 0.000000 0.000000 3.147685 -58.343073 6.634306 -32.793623 -8.020082 -25.337685 48.064864 2.195476 -7.692940 -19.017303 2.798239 20.975765 0.000000 0.000000 0.000000 3.147685 -58.343073 6.634306 0.000000 0.000001 0.000000 11.105227 0.141219 -2.748370 8.263416 0.094359 -5.514626 0.000000 0.000000 0.000000 8.285901 0.094468 -5.514150 -21.429187 24.538194 11.838503 0.000000 0.000000 0.000000 8.285901 0.094468 -5.514150 -5.880235 -11.203435 -4.136709 -23.070909 10.188957 -36.902563 -0.778798 -43.644024 -0.618952 0.000000 0.000000 0.000000 8.285901 0.094468 -5.514150 -5.152146 10.691573 2.515985 -41.675349 -27.395455 29.700354 -149.244947 66.526206 150.903522 0.000000 0.000000 0.000000 
-0.212287 73.841339 0.313993 0.000000 0.000000 0.000000 3.255208 -58.380065 6.711347 -35.501650 9.883145 24.209831 43.764232 -7.215547 -9.644746 -9.651611 -2.783083 -8.189323 0.000000 0.000000 0.000000 3.255208 -58.380065 6.711347 -32.815651 -7.846820 -25.234981 48.133333 2.053298 -7.774147 -18.954130 2.775109 21.086814 0.000000 0.000000 0.000000 3.255208 -58.380065 6.711347 0.000000 -0.000001 0.000000 11.091560 0.158412 -2.732186 8.236891 0.130319 -5.482838 0.000000 0.000000 0.000000 8.259372 0.130443 -5.482361 -21.566061 24.146891 11.698335 0.000000 0.000000 0.000000 8.259372 0.130443 -5.482361 -5.870542 -11.061403 -4.171698 -22.987244 10.659091 -37.048418 -1.551466 -44.072096 -1.371586 0.000000 0.000000 0.000000 8.259372 0.130443 -5.482361 -5.178397 10.652672 2.668575 -41.781992 -27.790443 29.400754 -144.887259 65.176602 146.548621 0.000000 0.000000 0.000000 
-0.224596 73.808868 0.369741 0.000000 0.000000 0.000000 3.391390 -58.417085 6.821260 -35.659342 9.734994 24.144562 44.083479 -7.087684 -9.577502 -9.694266 -2.769360 -8.215031 0.000000 0.000000 0.000000 3.391390 -58.417085 6.821260 -32.875818 -7.627194 -25.130325 48.258053 1.889656 -7.866712 -18.880460 2.747958 21.210589 0.000000 0.000000 0.000000 3.391390 -58.417085 6.821260 0.000000 0.000001 0.000000 11.074595 0.179246 -2.714486 8.204048 0.173837 -5.448619 0.000000 0.000000 0.000000 8.226522 0.173986 -5.448161 -21.737106 23.674406 11.523827 0.000000 0.000000 0.000000 8.226522 0.173986 -5.448161 -5.861939 -10.946071 -4.243523 -22.790227 11.203500 -37.079410 -2.568631 -44.597488 -2.588023 0.000000 0.000000 0.000000 8.226522 0.173986 -5.448161 -5.219771 10.572296 2.900660 -41.870675 -28.266555 29.056076 -138.768366 62.896944 140.499805 0.000000 0.000000 0.000000 
-0.232039 73.727837 0.443851 0.000000 0.000000 0.000000 3.665591 -58.425739 7.075354 -35.987157 9.479275 24.008716 44.635730 -6.913751 -9.472591 -9.796364 -2.737949 -8.254105 0.000000 0.000000 0.000000 3.665591 -58.425739 7.075354 -33.083889 -7.262117 -25.043385 48.583825 1.662593 -7.984058 -18.814301 2.698187 21.387853 0.000000 0.000000 0.000000 3.665591 -58.425739 7.075354 0.000000 -0.000001 0.000000 11.040900 0.208870 -2.692499 8.138124 0.236724 -5.405213 0.000000 0.000000 0.000000 8.160605 0.236878 -5.404749 -21.946737 22.865197 11.187921 0.000000 0.000000 0.000000 8.160605 0.236878 -5.404749 -5.844664 -10.885932 -4.387922 -22.439514 11.771437 -36.896624 -3.753700 -45.181056 -4.316785 0.000000 0.000000 0.000000 8.160605 0.236878 -5.404749 -5.304277 10.388867 3.457649 -42.014307 -28.943350 28.295348 -131.574633 59.485825 133.235517 0.000000 0.000000 0.000000 
-0.226463 73.525208 0.565252 0.000000 0.000000 0.000000 4.294591 -58.350798 7.693242 -36.744884 8.968300 23.678203 45.777113 -6.612668 -9.277489 -10.128721 -2.673242 -8.236238 0.000000 0.000000 0.000000 4.294591 -58.350798 7.693242 -33.657277 -6.545617 -24.999739 49.400928 1.282932 -8.148707 -18.785078 2.584915 21.687813 0.000000 0.000000 0.000000 4.294591 -58.350798 7.693242 0.000000 0.000000 0.000000 10.961934 0.260340 -2.656907 7.982656 0.345547 -5.338391 0.000000 0.000000 0.000000 8.005125 0.345656 -5.337916 -22.240453 21.206257 10.427363 0.000000 0.000000 0.000000 8.005125 0.345656 -5.337916 -5.789409 -10.906035 -4.641799 -21.919125 12.280458 -36.434640 -4.904227 -45.766045 -6.428669 0.000000 0.000000 0.000000 8.005125 0.345656 -5.337916 -5.486572 9.961649 4.839509 -42.348126 -30.087345 26.396233 -123.186505 54.213763 124.248463 0.000000 0.000000 0.000000 
-0.199793 73.228439 0.681993 0.000000 0.000000 0.000000 5.095979 -58.098422 8.505083 -37.758273 8.357481 23.214971 47.158157 -6.360369 -9.051459 -10.702706 -2.588894 -8.136058 0.000000 0.000000 0.000000 5.095979 -58.098422 8.505083 -34.444156 -5.808649 -25.078115 50.543929 0.800572 -8.254092 -19.176289 2.439221 21.776762 0.000000 0.000000 0.000000 5.095979 -58.098422 8.505083 -0.000001 0.000001 -0.000001 10.849429 0.299347 -2.620878 7.759552 0.430363 -5.272160 0.000000 0.000000 0.000000 7.782035 0.430448 -5.271686 -22.346516 19.126181 9.442978 0.000000 0.000000 0.000000 7.782035 0.430448 -5.271686 -5.718117 -11.024084 -5.030625 -21.254135 12.637240 -35.709052 -5.723460 -46.296467 -8.598868 0.000000 0.000000 0.000000 7.782035 0.430448 -5.271686 -5.719017 9.481705 6.925732 -43.001293 -31.008041 23.091924 -113.151851 45.304607 114.571260 0.000000 0.000000 0.000000 
